<svg xmlns="http://www.w3.org/2000/svg" width="931.96" height="931.96" viewBox="0 0 931.96 931.96">
  <defs>
    <style>
      .cls-1 {
        fill: #fff;
      }
    </style>
  </defs>
  <title>Asset 1</title>
  <g id="Layer_2" data-name="Layer 2">
    <g id="Layer_4" data-name="Layer 4">
      <g>
        <path d="M466,891A425.1,425.1,0,0,1,300.57,74.38a425.1,425.1,0,0,1,330.82,783.2A422.47,422.47,0,0,1,466,891Z"/>
        <path d="M466,82A384.1,384.1,0,0,1,615.41,819.81,384.1,384.1,0,0,1,316.54,112.14,381.51,381.51,0,0,1,466,82m0-82C208.62,0,0,208.63,0,466S208.62,932,466,932,932,723.33,932,466,723.33,0,466,0Z"/>
      </g>
    </g>
    <g id="Layer_1-2" data-name="Layer 1">
      <rect class="cls-1" x="465.98" y="527.52" width="39.69" height="309.12" rx="19.85" ry="19.85"/>
      <g>
        <path class="cls-1" d="M479.65,579.2a56.6,56.6,0,0,1-20.2-4.58L396.28,245.13a48.44,48.44,0,0,1,7.51-4.06c31.58,7.11,190.93,48,297.6,75.68l.11,0a.81.81,0,0,1,.62.78V534.88a.82.82,0,0,1-.66.8L480.78,579.15A8.63,8.63,0,0,1,479.65,579.2Z"/>
        <path class="cls-1" d="M420.58,265.65c52.81,13,174.61,44.25,261.54,66.76V519.1L478.79,559.16c-.59,0-1.27-.12-2-.23L420.58,265.65M401.4,220.24a.31.31,0,0,0-.13,0c-2.06,1.45-29.1,10-25.29,25.21l64.8,337.95c2.35,9.42,25.77,15.78,38.87,15.78a25.52,25.52,0,0,0,4.87-.4l220.81-43.5a20.82,20.82,0,0,0,16.79-20.42V317.56a20.81,20.81,0,0,0-15.71-20.17s-297.55-77.15-305-77.15Z"/>
      </g>
      <g>
        <path d="M280.15,584.5a10.3,10.3,0,0,1-10.44-10.11V344.48c0-58.76,48.44-106.57,108-106.57s108,47.81,108,106.57V574.39a10.29,10.29,0,0,1-10.44,10.11Z"/>
        <path class="cls-1" d="M377.69,257.91c48.51,0,88,38.84,88,86.57v220h-176v-220c0-47.73,39.47-86.57,88-86.57m0-40h0c-70.68,0-128,56.67-128,126.57V574.39a30.28,30.28,0,0,0,30.44,30.11H475.23a30.28,30.28,0,0,0,30.44-30.11V344.48c0-69.9-57.3-126.57-128-126.57Z"/>
      </g>
      <g>
        <polygon class="cls-1" points="164.5 304.84 430.3 355.15 421.71 493.12 151.72 510.07 164.5 304.84"/>
        <path d="M183.05,328.71l226.19,42.81-3.1,49.84-3.29,52.91L173.09,488.69l10-160m-20.37-44.25a18.08,18.08,0,0,0-18,17L131.62,511a18.08,18.08,0,0,0,18,19.19c.38,0,.77,0,1.15,0L424.66,513a18.08,18.08,0,0,0,16.91-16.92l4.49-72.21,4.31-69.15a18.07,18.07,0,0,0-14.68-18.88l-269.61-51a18.88,18.88,0,0,0-3.4-.32Z"/>
      </g>
      <rect class="cls-1" x="561.54" y="134.66" width="25.36" height="255.47" rx="12.68" ry="12.68"/>
      <path class="cls-1" d="M655.7,193.92h0a19.82,19.82,0,0,1-17.63,19.7l-76.53.95V158.14l76.53,16.08A19.82,19.82,0,0,1,655.7,193.92Z"/>
    </g>
  </g>
</svg>
